<svg xmlns="http://www.w3.org/2000/svg" viewBox="0 0 234.96 235.35"><defs><style>.cls-1{isolation:isolate;}.cls-2{fill:#069;}.cls-3,.cls-4{fill:#00b5e8;}.cls-4{mix-blend-mode:overlay;}.cls-5{fill:#1f1e21;opacity:0.5;}</style></defs><g class="cls-1"><g id="OBJECTS"><path class="cls-2" d="M367.47,158.66V185c0,.45,0,.9,0,1.35a26.61,26.61,0,0,1-7.21,16.81,25.83,25.83,0,0,1-16.59,8h-.09c-.35,0-.69.07-1,.08s-.9,0-1.35,0H251.78a13.59,13.59,0,0,0-13.6,13.58V341.35a26.32,26.32,0,0,0,26.32,26.32H238.18c-.92,0-1.81-.05-2.7-.13a27.63,27.63,0,0,1-4.56-.88,7.08,7.08,0,0,1-.83-.25l-.21-.08a8.69,8.69,0,0,1-.94-.32l-1-.39c-4.78-2-9.26-5.29-11.92-9.75-4.31-7.2-4.18-19-4.18-28.35V211.31c0-8.21,4.93-17.75,12.2-22.08,8.69-5.17,19.4-4.25,29.1-4.25h88a26.32,26.32,0,0,0,26.32-26.32Z" transform="translate(-132.52 -132.33)"/><path class="cls-3" d="M317.15,224.89a26.32,26.32,0,0,0-26.32,26.33v90.15c0,.44,0,.88,0,1.31v.1a26.19,26.19,0,0,1-6.94,16.43,26.56,26.56,0,0,1-17.33,8.39l-.91.06H264.5a26.32,26.32,0,0,1-26.32-26.32V327.76a13.58,13.58,0,0,0,13.16,13.58h.26a13.58,13.58,0,0,0,12.9-13.58V251.22a26.32,26.32,0,0,1,26.33-26.33Z" transform="translate(-132.52 -132.33)"/><path class="cls-4" d="M317.15,224.89a26.32,26.32,0,0,0-26.32,26.33v90.15c0,.44,0,.88,0,1.31v.1a26.19,26.19,0,0,1-6.94,16.43,26.56,26.56,0,0,1-17.33,8.39l-.91.06H264.5c-.53,0-1.06,0-1.58-.05l.35,0a26.42,26.42,0,0,0,24.27-25v-.1c0-.43,0-.88,0-1.32v-90.7a26.45,26.45,0,0,1,7.71-18.73,26.16,26.16,0,0,1,11.89-6.89Z" transform="translate(-132.52 -132.33)"/><path class="cls-3" d="M367.48,158.29A26.33,26.33,0,0,1,341.15,185h-13.6a13.62,13.62,0,0,0,13.59-12.9.92.92,0,0,1,0,.16v-.87c0,.15,0,.29,0,.44a13.56,13.56,0,0,0-13.59-13.16h-155a13.59,13.59,0,0,0-9.62,4,15.38,15.38,0,0,0-4,9.31c0-.15,0-.29,0-.44v.84a17.46,17.46,0,0,0,.62,3.27,14.37,14.37,0,0,0,12.83,9.5,26.6,26.6,0,0,1,17,7.63A26.25,26.25,0,0,1,197,211.26v26.36a26.32,26.32,0,0,0-26.32-26.32H158.9c-.45,0-.91,0-1.36,0-12.4-.43-22.86-10.19-24.68-22.39a67.76,67.76,0,0,1-.29-10.38V158.65a25.78,25.78,0,0,1,.74-6.19l.15-.6a26.32,26.32,0,0,1,25.44-19.53H340.42C354.94,132.33,367.28,143.77,367.48,158.29Z" transform="translate(-132.52 -132.33)"/><path class="cls-4" d="M189.32,192.73A26.25,26.25,0,0,1,197,211.26v26.36a26.1,26.1,0,0,0-4-13.94V211.26a26.25,26.25,0,0,0-7.71-18.53c-4.57-4.57-10.81-5.1-17.24-5.56-9.11-.66-15.26-11-12.3-19.46a13.21,13.21,0,0,1,12.72-9.06h4a13.59,13.59,0,0,0-9.62,4,15.38,15.38,0,0,0-4,9.31c0-.15,0-.29,0-.44v.84a16.72,16.72,0,0,0,.63,3.27,14.35,14.35,0,0,0,12.82,9.5A26.55,26.55,0,0,1,189.32,192.73Z" transform="translate(-132.52 -132.33)"/><path class="cls-4" d="M367.48,158.29A26.33,26.33,0,0,1,341.15,185h-4a26.33,26.33,0,0,0,26.33-26.69c-.2-14.52-12.54-23.17-27.05-23.17H154.9a34.11,34.11,0,0,0-10.49,1.55,26.21,26.21,0,0,1,14.49-4.34H340.43C354.94,132.33,367.28,143.77,367.48,158.29Z" transform="translate(-132.52 -132.33)"/><path class="cls-5" d="M245.89,360a26.2,26.2,0,0,0,18.62,7.71H252.17a25.88,25.88,0,0,1-6.28-4.64,26.28,26.28,0,0,1-7.71-18.62v-3.06A26.24,26.24,0,0,0,245.89,360Z" transform="translate(-132.52 -132.33)"/><path class="cls-5" d="M367.47,158.66v3.06A26.32,26.32,0,0,1,341.15,188h-88c-9.69,0-20.41-.92-29.1,4.25-7.27,4.33-12.19,13.88-12.19,22.08v-3.06c0-8.21,4.92-17.75,12.19-22.08,8.69-5.17,19.41-4.25,29.1-4.25h88a26.32,26.32,0,0,0,26.32-26.32Z" transform="translate(-132.52 -132.33)"/></g></g></svg>